<?xml version="1.0" standalone="no"?>
<!DOCTYPE svg PUBLIC "-//W3C//DTD SVG 20010904//EN"
 "http://www.w3.org/TR/2001/REC-SVG-20010904/DTD/svg10.dtd">
<svg version="1.0" xmlns="http://www.w3.org/2000/svg"
 width="1280.000000pt" height="1139.000000pt" viewBox="0 0 1280.000000 1139.000000"
 preserveAspectRatio="xMidYMid meet">
<metadata>
Created by potrace 1.15, written by Peter Selinger 2001-2017
</metadata>
<g transform="translate(0.000000,1139.000000) scale(0.100000,-0.100000)"
fill="#fff" stroke="none">
<path d="M1419 11375 c-164 -27 -292 -66 -664 -203 -368 -136 -544 -181 -702
-182 l-53 0 0 -296 0 -297 77 7 c193 18 341 58 728 201 429 158 581 195 795
195 214 0 366 -37 795 -195 448 -165 586 -199 805 -199 219 0 357 34 805 199
429 158 581 195 795 195 214 0 366 -37 795 -195 448 -165 586 -199 805 -199
219 0 357 34 805 199 429 158 581 195 795 195 214 0 366 -37 795 -195 448
-165 586 -199 805 -199 219 0 357 34 805 199 429 158 581 195 795 195 214 0
366 -37 795 -195 387 -143 535 -183 728 -201 l77 -7 0 297 0 296 -52 0 c-165
1 -327 44 -753 200 -462 169 -563 194 -795 194 -232 0 -333 -25 -795 -194
-460 -169 -585 -200 -805 -200 -220 0 -345 31 -805 200 -462 169 -563 194
-795 194 -232 0 -333 -25 -795 -194 -460 -169 -585 -200 -805 -200 -220 0
-345 31 -805 200 -462 169 -563 194 -795 194 -232 0 -333 -25 -795 -194 -460
-169 -585 -200 -805 -200 -220 0 -345 31 -805 200 -298 109 -405 143 -531 170
-130 27 -331 34 -445 15z"/>
<path d="M1419 10335 c-164 -27 -302 -69 -654 -200 -345 -128 -498 -170 -667
-181 l-98 -7 0 -294 0 -293 39 0 c63 0 265 38 380 71 58 17 232 77 386 134
429 158 581 195 795 195 214 0 366 -37 795 -195 327 -120 449 -158 610 -185
148 -25 242 -25 390 0 161 27 283 65 610 185 429 158 581 195 795 195 214 0
366 -37 795 -195 154 -57 328 -117 386 -134 138 -40 321 -71 419 -71 98 0 281
31 419 71 58 17 232 77 386 134 429 158 581 195 795 195 214 0 366 -37 795
-195 327 -120 449 -158 610 -185 148 -25 242 -25 390 0 161 27 283 65 610 185
429 158 581 195 795 195 214 0 366 -37 795 -195 154 -57 328 -117 386 -134
115 -33 317 -71 380 -71 l39 0 0 293 0 294 -97 7 c-177 12 -300 46 -708 196
-459 168 -563 194 -795 194 -232 0 -336 -26 -795 -194 -484 -178 -550 -194
-805 -194 -255 0 -321 16 -805 194 -459 168 -563 194 -795 194 -232 0 -336
-26 -795 -194 -484 -178 -550 -194 -805 -194 -255 0 -321 16 -805 194 -459
168 -563 194 -795 194 -232 0 -336 -26 -795 -194 -484 -178 -550 -194 -805
-194 -255 0 -321 16 -805 194 -295 108 -404 143 -531 170 -130 27 -331 34
-445 15z"/>
<path d="M1475 9304 c-197 -30 -333 -69 -660 -191 -387 -144 -546 -189 -717
-200 l-98 -6 0 -294 0 -293 35 0 c54 0 220 27 310 50 117 30 152 42 460 155
430 158 581 195 795 195 214 0 365 -37 795 -195 384 -141 460 -163 637 -190
124 -19 212 -19 336 0 177 27 253 49 637 190 430 158 581 195 795 195 214 0
365 -37 795 -195 384 -141 460 -163 637 -190 165 -25 321 -14 513 35 117 30
152 42 460 155 430 158 581 195 795 195 214 0 365 -37 795 -195 384 -141 460
-163 637 -190 124 -19 212 -19 336 0 177 27 253 49 637 190 430 158 581 195
795 195 214 0 365 -37 795 -195 308 -113 343 -125 460 -155 90 -23 256 -50
310 -50 l35 0 0 293 0 294 -97 6 c-172 11 -331 56 -718 200 -425 158 -562 191
-785 191 -223 0 -361 -33 -785 -191 -460 -172 -569 -198 -815 -198 -246 0
-355 26 -815 198 -424 158 -562 191 -785 191 -223 0 -361 -33 -785 -191 -460
-172 -569 -198 -815 -198 -246 0 -355 26 -815 198 -424 158 -562 191 -785 191
-223 0 -361 -33 -785 -191 -460 -172 -569 -198 -815 -198 -246 0 -355 26 -815
198 -261 97 -423 148 -546 172 -83 16 -305 28 -364 19z"/>
<path d="M1412 8254 c-135 -21 -294 -70 -614 -187 -394 -146 -588 -197 -739
-197 l-59 0 0 -296 0 -297 83 7 c186 16 321 53 722 201 429 158 581 195 795
195 214 0 366 -37 795 -195 472 -174 572 -198 805 -198 233 0 333 24 805 198
429 158 581 195 795 195 214 0 366 -37 795 -195 472 -174 572 -198 805 -198
233 0 333 24 805 198 429 158 581 195 795 195 214 0 366 -37 795 -195 472
-174 572 -198 805 -198 233 0 333 24 805 198 429 158 581 195 795 195 214 0
366 -37 795 -195 401 -148 536 -185 723 -201 l82 -7 0 297 0 296 -59 0 c-151
0 -345 51 -739 197 -330 121 -479 166 -624 187 -274 41 -453 7 -980 -187 -434
-160 -583 -197 -798 -197 -215 0 -364 37 -798 197 -330 121 -479 166 -624 187
-274 41 -453 7 -980 -187 -434 -160 -583 -197 -798 -197 -215 0 -364 37 -798
197 -527 194 -706 228 -980 187 -145 -21 -294 -66 -624 -187 -434 -160 -583
-197 -798 -197 -215 0 -364 37 -798 197 -156 57 -336 119 -401 138 -219 63
-400 78 -589 49z"/>
<path d="M1412 7214 c-135 -21 -294 -70 -614 -187 -394 -146 -588 -197 -739
-197 l-59 0 0 -296 0 -297 80 7 c189 16 335 56 737 205 414 153 570 191 783
191 213 0 369 -38 780 -190 424 -157 567 -195 765 -206 210 -12 401 31 807
182 458 170 581 203 799 211 243 9 392 -25 840 -191 410 -152 557 -191 754
-202 210 -12 401 31 807 182 458 170 581 203 799 211 243 9 392 -25 840 -191
410 -152 557 -191 754 -202 210 -12 401 31 807 182 458 170 581 203 799 211
243 9 392 -25 840 -191 387 -143 543 -187 727 -202 l82 -7 0 297 0 296 -59 0
c-151 0 -345 51 -739 197 -330 121 -479 166 -624 187 -274 41 -453 7 -980
-187 -434 -160 -583 -197 -798 -197 -215 0 -364 37 -798 197 -330 121 -479
166 -624 187 -274 41 -453 7 -980 -187 -434 -160 -583 -197 -798 -197 -215 0
-364 37 -798 197 -330 121 -479 166 -624 187 -274 41 -453 7 -980 -187 -434
-160 -583 -197 -798 -197 -215 0 -364 37 -798 197 -156 57 -336 119 -401 138
-219 63 -400 78 -589 49z"/>
<path d="M1412 6174 c-135 -21 -294 -70 -614 -187 -394 -146 -588 -197 -739
-197 l-59 0 0 -295 0 -295 36 0 c71 0 248 32 365 65 65 19 245 81 401 138 434
160 583 197 798 197 215 0 364 -37 798 -197 330 -121 479 -166 624 -187 274
-41 453 -7 980 187 434 160 583 197 798 197 215 0 364 -37 798 -197 527 -194
706 -228 980 -187 145 21 294 66 624 187 434 160 583 197 798 197 215 0 364
-37 798 -197 330 -121 479 -166 624 -187 274 -41 453 -7 980 187 434 160 583
197 798 197 215 0 364 -37 798 -197 156 -57 336 -119 401 -138 117 -33 294
-65 365 -65 l36 0 0 295 0 295 -59 0 c-151 0 -345 51 -739 197 -330 121 -479
166 -624 187 -274 41 -453 7 -980 -187 -434 -160 -583 -197 -798 -197 -215 0
-364 37 -798 197 -330 121 -479 166 -624 187 -274 41 -453 7 -980 -187 -434
-160 -583 -197 -798 -197 -215 0 -364 37 -798 197 -527 194 -706 228 -980 187
-145 -21 -294 -66 -624 -187 -434 -160 -583 -197 -798 -197 -215 0 -364 37
-798 197 -156 57 -336 119 -401 138 -219 63 -400 78 -589 49z"/>
<path d="M1475 5144 c-192 -29 -333 -70 -692 -203 -375 -139 -574 -191 -724
-191 l-59 0 0 -295 0 -295 36 0 c71 0 248 32 365 65 65 19 245 81 401 138 434
160 583 197 798 197 215 0 364 -37 798 -197 330 -121 479 -166 624 -187 274
-41 453 -7 980 187 434 160 583 197 798 197 215 0 364 -37 798 -197 527 -194
706 -228 980 -187 145 21 294 66 624 187 434 160 583 197 798 197 215 0 364
-37 798 -197 527 -194 706 -228 980 -187 145 21 294 66 624 187 434 160 583
197 798 197 215 0 364 -37 798 -197 156 -57 336 -119 401 -138 117 -33 294
-65 365 -65 l36 0 0 293 0 294 -97 6 c-175 12 -337 57 -751 211 -406 151 -597
194 -807 182 -197 -11 -344 -50 -754 -202 -448 -166 -597 -200 -840 -191 -218
8 -341 41 -799 211 -406 151 -597 194 -807 182 -197 -11 -344 -50 -754 -202
-448 -166 -597 -200 -840 -191 -218 8 -341 41 -799 211 -406 151 -597 194
-807 182 -198 -11 -341 -49 -765 -206 -411 -152 -567 -190 -780 -190 -213 0
-369 38 -783 191 -299 111 -452 160 -578 184 -82 16 -305 28 -364 19z"/>
<path d="M1451 4100 c-166 -24 -289 -60 -656 -195 -389 -143 -585 -195 -736
-195 l-59 0 0 -295 0 -295 36 0 c71 0 248 32 365 65 65 19 245 81 401 138 434
160 583 197 798 197 215 0 364 -37 798 -197 527 -194 706 -228 980 -187 145
21 294 66 624 187 434 160 583 197 798 197 215 0 364 -37 798 -197 527 -194
706 -228 980 -187 145 21 294 66 624 187 434 160 583 197 798 197 215 0 364
-37 798 -197 330 -121 479 -166 624 -187 274 -41 453 -7 980 187 434 160 583
197 798 197 215 0 364 -37 798 -197 156 -57 336 -119 401 -138 117 -33 294
-65 365 -65 l36 0 0 295 0 295 -59 0 c-151 0 -347 52 -736 195 -472 174 -572
198 -805 198 -233 0 -333 -24 -805 -198 -429 -158 -581 -195 -795 -195 -214 0
-366 37 -795 195 -472 174 -572 198 -805 198 -233 0 -333 -24 -805 -198 -429
-158 -581 -195 -795 -195 -214 0 -366 37 -795 195 -472 174 -572 198 -805 198
-233 0 -333 -24 -805 -198 -429 -158 -581 -195 -795 -195 -214 0 -366 37 -795
195 -314 116 -407 146 -545 175 -109 23 -314 33 -409 20z"/>
<path d="M1450 3059 c-175 -27 -309 -66 -653 -193 -391 -144 -587 -196 -738
-196 l-59 0 0 -296 0 -297 80 7 c185 15 344 59 705 193 460 172 569 198 815
198 246 0 355 -26 815 -198 424 -158 562 -191 785 -191 223 0 361 33 785 191
460 172 569 198 815 198 246 0 355 -26 815 -198 424 -158 562 -191 785 -191
223 0 361 33 785 191 460 172 569 198 815 198 246 0 355 -26 815 -198 424
-158 562 -191 785 -191 223 0 361 33 785 191 460 172 569 198 815 198 246 0
355 -26 815 -198 361 -134 520 -178 705 -193 l80 -7 0 297 0 296 -59 0 c-151
0 -346 52 -736 195 -384 141 -460 163 -637 190 -124 19 -212 19 -336 0 -177
-27 -253 -49 -637 -190 -430 -158 -581 -195 -795 -195 -214 0 -365 37 -795
195 -384 141 -460 163 -637 190 -124 19 -212 19 -336 0 -177 -27 -253 -49
-637 -190 -430 -158 -581 -195 -795 -195 -214 0 -365 37 -795 195 -384 141
-460 163 -637 190 -124 19 -212 19 -336 0 -177 -27 -253 -49 -637 -190 -430
-158 -581 -195 -795 -195 -214 0 -365 37 -795 195 -154 56 -302 110 -330 118
-235 75 -459 102 -625 76z"/>
<path d="M1397 2009 c-152 -26 -282 -66 -602 -184 -389 -143 -585 -195 -736
-195 l-59 0 0 -296 0 -297 83 7 c185 15 324 54 712 196 484 178 550 194 805
194 255 0 321 -16 805 -194 459 -168 563 -194 795 -194 232 0 336 26 795 194
484 178 550 194 805 194 255 0 321 -16 805 -194 459 -168 563 -194 795 -194
232 0 336 26 795 194 484 178 550 194 805 194 255 0 321 -16 805 -194 459
-168 563 -194 795 -194 232 0 336 26 795 194 484 178 550 194 805 194 255 0
321 -16 805 -194 388 -142 527 -181 713 -196 l82 -7 0 297 0 296 -59 0 c-151
0 -347 52 -736 195 -327 120 -449 158 -610 185 -148 25 -242 25 -390 0 -161
-27 -283 -65 -610 -185 -429 -158 -581 -195 -795 -195 -214 0 -366 37 -795
195 -327 120 -449 158 -610 185 -148 25 -242 25 -390 0 -161 -27 -283 -65
-610 -185 -429 -158 -581 -195 -795 -195 -214 0 -366 37 -795 195 -154 57
-328 117 -386 134 -138 40 -321 71 -419 71 -98 0 -281 -31 -419 -71 -58 -17
-232 -77 -386 -134 -429 -158 -581 -195 -795 -195 -214 0 -366 37 -795 195
-327 120 -449 158 -610 185 -143 24 -256 24 -398 -1z"/>
<path d="M1485 984 c-213 -33 -330 -66 -690 -199 -389 -143 -585 -195 -736
-195 l-59 0 0 -296 0 -297 83 7 c184 15 321 53 712 196 460 169 585 200 805
200 220 0 345 -31 805 -200 462 -169 563 -194 795 -194 232 0 333 25 795 194
460 169 585 200 805 200 220 0 345 -31 805 -200 462 -169 563 -194 795 -194
232 0 333 25 795 194 460 169 585 200 805 200 220 0 345 -31 805 -200 462
-169 563 -194 795 -194 232 0 333 25 795 194 460 169 585 200 805 200 220 0
345 -31 805 -200 391 -143 528 -181 713 -196 l82 -7 0 297 0 296 -59 0 c-151
0 -347 52 -736 195 -448 165 -586 199 -805 199 -219 0 -357 -34 -805 -199
-429 -158 -581 -195 -795 -195 -214 0 -366 37 -795 195 -448 165 -586 199
-805 199 -219 0 -357 -34 -805 -199 -429 -158 -581 -195 -795 -195 -214 0
-366 37 -795 195 -448 165 -586 199 -805 199 -219 0 -357 -34 -805 -199 -429
-158 -581 -195 -795 -195 -214 0 -366 37 -795 195 -299 110 -439 154 -575 180
-85 16 -288 27 -345 19z"/>
</g>
</svg>
